# xmcd
# Track frame offsets:
# 150
# 22098
# 65832
# 86335
# 110987
# 125337
# 143843
# 160320
#
# Disc length: 2675 seconds
# Revision: 0
# Processed by: cddbd v1.5.1PL0 Copyright (c) Steve Scherf et al.
# Submitted via: VisiTrax 2.9.10.220 - For more info visit www.synapsa.com
#
DISCID=720a7108
DTITLE=Lavette, Bettye - Let Me Down Easy - In Concert
DYEAR=2000
DGENRE=Soul
TTITLE0=My Man
TTITLE1=Damn Your Eyes
TTITLE2=Right in the Middle
TTITLE3=You'll Never Change
TTITLE4=Almost
TTITLE5=Your Turn To Cry (Your Time To Cry)
TTITLE6=He Made A Woman Out of Me
TTITLE7=Let Me Down Easy
EXTD=Masterizzato
EXTT0=
EXTT1=
EXTT2=
EXTT3=
EXTT4=
EXTT5=
EXTT6=
EXTT7=
PLAYORDER=
